<svg xmlns="http://www.w3.org/2000/svg" viewBox="0 0 214.99 214.69">
  <defs>
    <style>
      .cls-1 {
        fill: #333;
      }
    </style>
  </defs>
  <title>Color Blindness</title>
  <g id="Layer_2" data-name="Layer 2">
    <g id="Layer_1-2" data-name="Layer 1">
      <g>
        <path class="cls-1" d="M97.85,204.09a6.21,6.21,0,1,0,8.78,0A6.2,6.2,0,0,0,97.85,204.09Z"/>
        <path class="cls-1" d="M95.48,174.37a6.21,6.21,0,1,0-8.78,0A6.2,6.2,0,0,0,95.48,174.37Z"/>
        <path class="cls-1" d="M134.49,170.83a6.21,6.21,0,1,0-8.78,0A6.2,6.2,0,0,0,134.49,170.83Z"/>
        <path class="cls-1" d="M139.39,199a6.21,6.21,0,1,0,8.78,0A6.2,6.2,0,0,0,139.39,199Zm6.25,6.24a2.63,2.63,0,1,1,0-3.71A2.63,2.63,0,0,1,145.64,205.27Z"/>
        <path class="cls-1" d="M150.19,125.74a6.21,6.21,0,1,0-8.78,0A6.21,6.21,0,0,0,150.19,125.74Z"/>
        <path class="cls-1" d="M164.21,149.89a6.21,6.21,0,1,0,8.78,0A6.22,6.22,0,0,0,164.21,149.89Z"/>
        <path class="cls-1" d="M182.13,143.11a5.76,5.76,0,1,0,8.15,0A5.76,5.76,0,0,0,182.13,143.11Z"/>
        <path class="cls-1" d="M70,164.07a6.21,6.21,0,1,0,8.78,0A6.2,6.2,0,0,0,70,164.07Z"/>
        <path class="cls-1" d="M105.68,161.22a9.1,9.1,0,1,0-12.88,0A9.09,9.09,0,0,0,105.68,161.22Z"/>
        <path class="cls-1" d="M101.63,104.78a9.11,9.11,0,1,0,0,12.88A9.1,9.1,0,0,0,101.63,104.78Z"/>
        <path class="cls-1" d="M52.88,165.41a3.9,3.9,0,1,0,0-5.51A3.9,3.9,0,0,0,52.88,165.41Z"/>
        <path class="cls-1" d="M128.3,186.69a3.9,3.9,0,1,0-5.51,0A3.9,3.9,0,0,0,128.3,186.69Z"/>
        <path class="cls-1" d="M136.4,180.61a3.9,3.9,0,1,0-5.51,0A3.9,3.9,0,0,0,136.4,180.61Z"/>
        <path class="cls-1" d="M138.43,191.75a3.89,3.89,0,1,0-5.51,0A3.9,3.9,0,0,0,138.43,191.75Z"/>
        <path class="cls-1" d="M145,167.94a3.89,3.89,0,1,0-5.51,0A3.9,3.9,0,0,0,145,167.94Z"/>
        <path class="cls-1" d="M44.66,116.45a6.21,6.21,0,1,0,8.78,0A6.2,6.2,0,0,0,44.66,116.45Z"/>
        <path class="cls-1" d="M50.74,62.75a6.21,6.21,0,1,0,8.78,0A6.22,6.22,0,0,0,50.74,62.75Z"/>
        <path class="cls-1" d="M50.4,184.33a6.21,6.21,0,1,0,0,8.79A6.22,6.22,0,0,0,50.4,184.33Z"/>
        <circle class="cls-1" cx="39.42" cy="144.65" r="6.21"/>
        <path class="cls-1" d="M26.59,57.86a6.21,6.21,0,1,0-8.78,0A6.22,6.22,0,0,0,26.59,57.86Zm-6.25-6.25a2.63,2.63,0,1,1,0,3.71A2.63,2.63,0,0,1,20.34,51.61Z"/>
        <path class="cls-1" d="M194.1,148.37a6.21,6.21,0,1,0,8.78,0A6.2,6.2,0,0,0,194.1,148.37Z"/>
        <path class="cls-1" d="M195.11,68a6.21,6.21,0,1,0,0-8.78A6.22,6.22,0,0,0,195.11,68Z"/>
        <path class="cls-1" d="M178.34,106.94a7.72,7.72,0,1,0,0-10.92A7.71,7.71,0,0,0,178.34,106.94Z"/>
        <path class="cls-1" d="M7.34,111.22a4.3,4.3,0,1,0-6.08,0A4.3,4.3,0,0,0,7.34,111.22Z"/>
        <path class="cls-1" d="M23,114.76a4.3,4.3,0,1,0,6.08,0A4.3,4.3,0,0,0,23,114.76Z"/>
        <path class="cls-1" d="M52.93,194.3a4.3,4.3,0,1,0,6.08,0A4.3,4.3,0,0,0,52.93,194.3Z"/>
        <path class="cls-1" d="M202.37,139.08a4.3,4.3,0,1,0,6.08,0A4.3,4.3,0,0,0,202.37,139.08Z"/>
        <path class="cls-1" d="M202.37,134a4.3,4.3,0,1,0-6.08,0A4.29,4.29,0,0,0,202.37,134Z"/>
        <path class="cls-1" d="M190.3,136.13a3.46,3.46,0,1,0,4.89,0A3.46,3.46,0,0,0,190.3,136.13Z"/>
        <path class="cls-1" d="M158.73,112.64a8.5,8.5,0,1,0-12,0A8.5,8.5,0,0,0,158.73,112.64Z"/>
        <path class="cls-1" d="M76.67,80.21a8.49,8.49,0,1,0-12,0A8.5,8.5,0,0,0,76.67,80.21Zm-9.48-9.47a4.91,4.91,0,1,1,0,6.94A4.9,4.9,0,0,1,67.19,70.74Z"/>
        <path class="cls-1" d="M110.79,32.35a7.73,7.73,0,1,0,10.93,0A7.72,7.72,0,0,0,110.79,32.35Zm8.39,8.39a4.14,4.14,0,1,1,0-5.86A4.15,4.15,0,0,1,119.18,40.74Z"/>
        <path class="cls-1" d="M143.1,137.56a4.3,4.3,0,1,0-6.08,0A4.3,4.3,0,0,0,143.1,137.56Z"/>
        <path class="cls-1" d="M110.76,188.15a5.84,5.84,0,1,0,0,8.25A5.84,5.84,0,0,0,110.76,188.15Zm-2.54,5.72a2.25,2.25,0,1,1,0-3.19A2.25,2.25,0,0,1,108.22,193.87Z"/>
        <circle class="cls-1" cx="80.79" cy="113.75" r="4.3"/>
        <path class="cls-1" d="M51.92,157.83a4.3,4.3,0,1,0-6.08,0A4.3,4.3,0,0,0,51.92,157.83Z"/>
        <path class="cls-1" d="M51.26,183.81a9.52,9.52,0,1,0,0-13.47A9.52,9.52,0,0,0,51.26,183.81Zm2.53-10.94a5.95,5.95,0,1,1,0,8.41A6,6,0,0,1,53.79,172.87Z"/>
        <path class="cls-1" d="M59.52,83.36a4.3,4.3,0,1,0,6.08,0A4.29,4.29,0,0,0,59.52,83.36Z"/>
        <path class="cls-1" d="M121.83,53.47a4.3,4.3,0,1,0-6.08,0A4.3,4.3,0,0,0,121.83,53.47Z"/>
        <path class="cls-1" d="M165.9,99.57a4.3,4.3,0,1,0,6.08,0A4.3,4.3,0,0,0,165.9,99.57Z"/>
        <path class="cls-1" d="M134,31.18a4.3,4.3,0,1,0-6.07,0A4.31,4.31,0,0,0,134,31.18Z"/>
        <path class="cls-1" d="M171.47,27.13a4.3,4.3,0,1,0-6.08,0A4.3,4.3,0,0,0,171.47,27.13Z"/>
        <path class="cls-1" d="M144.62,58a4.3,4.3,0,1,0,6.08,0A4.3,4.3,0,0,0,144.62,58Z"/>
        <path class="cls-1" d="M141.08,89.94a4.3,4.3,0,1,0,6.08,0A4.3,4.3,0,0,0,141.08,89.94Z"/>
        <circle class="cls-1" cx="134.49" cy="83.36" r="4.3"/>
        <path class="cls-1" d="M99,100.58a4.3,4.3,0,1,0,0-6.08A4.3,4.3,0,0,0,99,100.58Z"/>
        <path class="cls-1" d="M93,77.28a4.3,4.3,0,1,0-6.08,0A4.3,4.3,0,0,0,93,77.28Z"/>
        <path class="cls-1" d="M105.62,72.72a4.3,4.3,0,1,0-6.08,0A4.32,4.32,0,0,0,105.62,72.72Z"/>
        <path class="cls-1" d="M61,55.49a4.3,4.3,0,1,0,6.07,0A4.3,4.3,0,0,0,61,55.49Z"/>
        <path class="cls-1" d="M28.56,123.33a8.67,8.67,0,1,0,12.26,0A8.68,8.68,0,0,0,28.56,123.33Z"/>
        <path class="cls-1" d="M149.47,68.37a7.58,7.58,0,1,0,0,10.72A7.58,7.58,0,0,0,149.47,68.37Z"/>
        <path class="cls-1" d="M100.26,89.22a7.57,7.57,0,1,0,0-10.71A7.57,7.57,0,0,0,100.26,89.22Z"/>
        <path class="cls-1" d="M176,84.37a4.3,4.3,0,1,0,6.08,0A4.3,4.3,0,0,0,176,84.37Z"/>
        <path class="cls-1" d="M174.51,73.73a4.3,4.3,0,1,0,6.08,0A4.3,4.3,0,0,0,174.51,73.73Z"/>
        <path class="cls-1" d="M206.43,124.9a4.3,4.3,0,1,0,6.08,0A4.3,4.3,0,0,0,206.43,124.9Z"/>
        <path class="cls-1" d="M26.76,140.09a10,10,0,1,0,0,14.19A10,10,0,0,0,26.76,140.09Zm-2.54,11.66a6.45,6.45,0,1,1,0-9.12A6.45,6.45,0,0,1,24.22,151.75Z"/>
        <path class="cls-1" d="M18.65,131a10,10,0,1,0-14.18,0A10,10,0,0,0,18.65,131Z"/>
        <path class="cls-1" d="M72.86,27.12a10,10,0,1,0-14.19,0A10,10,0,0,0,72.86,27.12ZM61.2,15.47a6.45,6.45,0,1,1,0,9.12A6.46,6.46,0,0,1,61.2,15.47Z"/>
        <path class="cls-1" d="M97.12,20.88a10.67,10.67,0,1,0-15.09,0A10.68,10.68,0,0,0,97.12,20.88Z"/>
        <path class="cls-1" d="M125.82,23.92a14,14,0,0,0,3.9-12.27,6.12,6.12,0,0,0,1.56,2.64,6.23,6.23,0,1,0-1.75-3.52,14,14,0,1,0-3.71,13.15Z"/>
        <path class="cls-1" d="M46.68,105.31a25.31,25.31,0,1,0-35.8,0A25.31,25.31,0,0,0,46.68,105.31Z"/>
        <path class="cls-1" d="M112,93.66a17.67,17.67,0,1,0,25,0A17.67,17.67,0,0,0,112,93.66Zm22.46,2.53a14.09,14.09,0,1,1-19.92,0A14.1,14.1,0,0,1,134.49,96.19Z"/>
        <path class="cls-1" d="M59.52,54.31a17.67,17.67,0,1,0-25,0A17.67,17.67,0,0,0,59.52,54.31Z"/>
        <path class="cls-1" d="M93.46,180.79a17.67,17.67,0,1,0,0,25A17.67,17.67,0,0,0,93.46,180.79Z"/>
        <path class="cls-1" d="M160.16,114.43a17.67,17.67,0,1,0,25,0A17.67,17.67,0,0,0,160.16,114.43ZM182.62,117a14.09,14.09,0,1,1-19.93,0A14.12,14.12,0,0,1,182.62,117Z"/>
        <path class="cls-1" d="M73.19,32.53a21,21,0,1,0,29.72,0A21,21,0,0,0,73.19,32.53Z"/>
        <path class="cls-1" d="M144.75,169.52a17.85,17.85,0,1,0,25.24,0A17.85,17.85,0,0,0,144.75,169.52Z"/>
        <path class="cls-1" d="M157.79,35.06a21,21,0,1,0,29.72,0A21,21,0,0,0,157.79,35.06ZM185,37.59a17.43,17.43,0,1,1-24.65,0A17.45,17.45,0,0,1,185,37.59Z"/>
        <path class="cls-1" d="M85.69,124.73a21,21,0,1,0,0,29.72A21,21,0,0,0,85.69,124.73ZM58.5,151.91a17.43,17.43,0,1,1,24.66,0A17.46,17.46,0,0,1,58.5,151.91Z"/>
        <path class="cls-1" d="M189.54,75.93a13.37,13.37,0,1,0,18.91,0A13.37,13.37,0,0,0,189.54,75.93Z"/>
        <path class="cls-1" d="M133.48,153.6a11.94,11.94,0,1,0-16.89,0A11.94,11.94,0,0,0,133.48,153.6Zm-14.36-14.35a8.36,8.36,0,1,1,0,11.82A8.37,8.37,0,0,1,119.12,139.25Z"/>
        <path class="cls-1" d="M119.29,182a11.94,11.94,0,1,0-16.88,0A11.93,11.93,0,0,0,119.29,182Z"/>
        <path class="cls-1" d="M55.8,114.09a11.94,11.94,0,1,0,0-16.89A12,12,0,0,0,55.8,114.09Z"/>
        <path class="cls-1" d="M152.56,76.43a11.94,11.94,0,1,0,16.89,0A12,12,0,0,0,152.56,76.43Z"/>
        <path class="cls-1" d="M129.26,54.82a11.94,11.94,0,1,0,0-16.89A11.94,11.94,0,0,0,129.26,54.82Z"/>
        <path class="cls-1" d="M112.71,139.92a11.94,11.94,0,1,0-16.89,0A11.94,11.94,0,0,0,112.71,139.92Z"/>
        <path class="cls-1" d="M158.81,157.66a11.94,11.94,0,1,0-16.89,0A12,12,0,0,0,158.81,157.66Z"/>
        <path class="cls-1" d="M175.36,158a11.94,11.94,0,1,0,16.88,0A11.93,11.93,0,0,0,175.36,158Zm14.35,14.36a8.36,8.36,0,1,1,0-11.82A8.37,8.37,0,0,1,189.71,172.35Z"/>
        <path class="cls-1" d="M194.61,103.28a11.94,11.94,0,1,0,16.88,0A11.93,11.93,0,0,0,194.61,103.28Z"/>
        <path class="cls-1" d="M94.47,99.4a11.94,11.94,0,1,0-16.89,0A11.94,11.94,0,0,0,94.47,99.4Z"/>
        <path class="cls-1" d="M142.17,30.25a11.59,11.59,0,1,0,0-16.38A11.6,11.6,0,0,0,142.17,30.25Z"/>
        <path class="cls-1" d="M113.55,61.74a11.94,11.94,0,1,0,16.89,0A12,12,0,0,0,113.55,61.74Zm14.36,14.35a8.36,8.36,0,1,1,0-11.82A8.39,8.39,0,0,1,127.91,76.09Z"/>
        <path class="cls-1" d="M115.58,193.45a11.94,11.94,0,1,0,16.89,0A11.93,11.93,0,0,0,115.58,193.45Z"/>
        <path class="cls-1" d="M44.83,158.5a13.37,13.37,0,1,0,0,18.91A13.39,13.39,0,0,0,44.83,158.5Z"/>
      </g>
    </g>
  </g>
</svg>
